<svg width="24" height="101" viewBox="0 0 24 101" fill="none" xmlns="http://www.w3.org/2000/svg">
<path d="M3 13H11V3H3V13ZM3 21H11V15H3V21ZM13 21H21V11H13V21ZM13 3V9H21V3H13Z" fill="#58A193"/>
<path d="M16 51C17.66 51 18.99 49.66 18.99 48C18.99 46.34 17.66 45 16 45C14.34 45 13 46.34 13 48C13 49.66 14.34 51 16 51ZM8 51C9.66 51 10.99 49.66 10.99 48C10.99 46.34 9.66 45 8 45C6.34 45 5 46.34 5 48C5 49.66 6.34 51 8 51ZM8 53C5.67 53 1 54.17 1 56.5V59H15V56.5C15 54.17 10.33 53 8 53ZM16 53C15.71 53 15.38 53.02 15.03 53.05C16.19 53.89 17 55.02 17 56.5V59H23V56.5C23 54.17 18.33 53 16 53Z" fill="#58A193"/>
<g clip-path="url(#clip0)">
<path d="M8.42857 85.2768V83.5804C8.42857 83.3004 8.65759 83.0714 8.9375 83.0714H10.6339C10.9138 83.0714 11.1429 83.3004 11.1429 83.5804V85.2768C11.1429 85.5567 10.9138 85.7857 10.6339 85.7857H8.9375C8.65759 85.7857 8.42857 85.5567 8.42857 85.2768ZM14.3661 85.7857H16.0625C16.3424 85.7857 16.5714 85.5567 16.5714 85.2768V83.5804C16.5714 83.3004 16.3424 83.0714 16.0625 83.0714H14.3661C14.0862 83.0714 13.8571 83.3004 13.8571 83.5804V85.2768C13.8571 85.5567 14.0862 85.7857 14.3661 85.7857ZM8.9375 89.8571H10.6339C10.9138 89.8571 11.1429 89.6281 11.1429 89.3482V87.6518C11.1429 87.3719 10.9138 87.1429 10.6339 87.1429H8.9375C8.65759 87.1429 8.42857 87.3719 8.42857 87.6518V89.3482C8.42857 89.6281 8.65759 89.8571 8.9375 89.8571ZM14.3661 89.8571H16.0625C16.3424 89.8571 16.5714 89.6281 16.5714 89.3482V87.6518C16.5714 87.3719 16.3424 87.1429 16.0625 87.1429H14.3661C14.0862 87.1429 13.8571 87.3719 13.8571 87.6518V89.3482C13.8571 89.6281 14.0862 89.8571 14.3661 89.8571ZM11.1429 93.4196V91.7232C11.1429 91.4433 10.9138 91.2143 10.6339 91.2143H8.9375C8.65759 91.2143 8.42857 91.4433 8.42857 91.7232V93.4196C8.42857 93.6996 8.65759 93.9286 8.9375 93.9286H10.6339C10.9138 93.9286 11.1429 93.6996 11.1429 93.4196ZM14.3661 93.9286H16.0625C16.3424 93.9286 16.5714 93.6996 16.5714 93.4196V91.7232C16.5714 91.4433 16.3424 91.2143 16.0625 91.2143H14.3661C14.0862 91.2143 13.8571 91.4433 13.8571 91.7232V93.4196C13.8571 93.6996 14.0862 93.9286 14.3661 93.9286ZM22 99.1875V100.714H3V99.1875C3 98.9076 3.22902 98.6786 3.50893 98.6786H4.33594V80.0179C4.33594 79.4538 4.78973 79 5.35379 79H19.6462C20.2103 79 20.6641 79.4538 20.6641 80.0179V98.6786H21.4911C21.771 98.6786 22 98.9076 22 99.1875ZM6.37165 98.6362H11.1429V95.7946C11.1429 95.5147 11.3719 95.2857 11.6518 95.2857H13.3482C13.6281 95.2857 13.8571 95.5147 13.8571 95.7946V98.6362H18.6283V81.0781L6.39286 81.0357L6.37165 98.6362Z" fill="#58A193"/>
</g>
<defs>
<clipPath id="clip0">
<rect width="19" height="21.7143" fill="white" transform="translate(3 79)"/>
</clipPath>
</defs>
</svg>
